<svg width="211" height="71" viewBox="0 0 211 71" fill="none" xmlns="http://www.w3.org/2000/svg">
<path d="M118.131 8.94339H118.494C121.28 13.2038 122.915 16.3669 123.401 18.4343L123.22 18.6168H122.674C121.584 17.6445 121.039 17.0367 121.039 16.7917H120.857V16.9742C123.643 32.4284 125.037 41.1866 125.037 43.2568C125.037 46.9072 123.461 49.3999 120.312 50.74L115.587 52.5652C111.225 54.3904 107.832 57.3107 105.41 61.3256C102.865 65.4597 100.257 67.5312 97.5947 67.5312H97.0495C94.3829 67.5312 92.5655 65.8261 91.5973 62.4207V58.7704C91.5973 57.6753 92.7473 54.875 95.0504 50.3745H94.8686C90.2629 54.2672 85.5376 58.8904 80.6929 64.2459C76.3311 68.7464 73.1193 70.9995 71.0606 70.9995H69.7884C66.5171 70.9995 64.5775 68.5041 63.9727 63.5163V62.6037C63.9727 59.803 65.0009 56.5806 67.0623 52.9303L67.244 52.5652V51.8351C65.6679 52.0774 62.6378 53.2948 58.157 55.4855C55.3682 57.553 53.1278 59.8659 51.4326 62.4207C49.0073 66.0711 46.4629 67.8963 43.7995 67.8963H43.2543C40.3464 67.8963 38.4068 66.4964 37.4386 63.6988V59.5004C37.4386 57.9176 39.5572 53.5969 43.7995 46.5421C42.1016 47.0272 40.9512 47.2726 40.3464 47.2726C37.6798 47.2726 35.7407 45.8723 34.5307 43.0743C34.1672 41.4914 33.4998 40.702 32.5316 40.702C31.6824 40.8215 30.3507 41.8569 28.5333 43.8048C27.6841 45.1422 27.2611 45.995 27.2611 46.3605C28.8341 48.6707 30.4102 49.8284 31.9864 49.8284C35.2577 50.5584 36.8934 51.6535 36.8934 53.1132V53.2957C36.8934 54.8759 36.6489 55.6685 36.1664 55.6685L30.5324 54.3909H27.0794C22.7176 55.8505 19.5653 57.918 17.6288 60.5965C17.2654 60.962 15.2662 63.1517 11.6314 67.1671C10.0553 68.3818 8.29782 68.9923 6.36092 68.9923H5.8157C4.23956 68.9923 2.60434 68.1395 0.908703 66.437C0.301235 65.3419 0 64.1241 0 62.7867V61.6916C0 59.5009 1.39168 55.9108 4.18004 50.923V50.7405C2.36263 48.9153 1.45393 46.9669 1.45393 44.8995V42.8922C1.45393 37.659 3.87607 31.3936 8.72355 24.0928L9.45051 23.5453L9.63225 23.9103C9.63225 24.2754 8.23785 27.1359 5.45222 32.4887C3.87607 36.5041 3.08959 39.3619 3.08959 41.067C3.08959 44.4719 3.99829 46.4198 5.8157 46.9076H5.99744C7.20693 46.9076 8.23785 45.4479 9.08703 42.5272L9.26877 42.3447H9.63225V43.0747C9.63225 45.1422 8.90529 47.3927 7.45137 49.8284C5.38952 50.9235 4.36178 51.9556 4.36178 52.9312C2.05867 56.8234 0.908703 59.5611 0.908703 61.1445V62.9697C1.51345 65.5254 2.66341 66.8021 4.36178 66.8021C6.54266 66.8021 9.63226 64.1848 13.6305 58.9543C16.6579 55.5462 19.5657 53.1735 22.3541 51.8361L25.9889 49.8284L25.8072 47.8207C25.8072 43.3175 27.2611 40.1549 30.169 38.3297C31.5007 36.9891 32.8951 36.3225 34.349 36.3225C35.0759 36.3225 36.2259 37.9022 37.8021 41.0675C38.8925 42.4049 39.9202 43.0747 40.8916 43.0747C42.2234 43.0747 46.2812 41.8573 53.0683 39.4244V38.8773C51.1286 38.2667 48.0986 37.2346 43.9812 35.774L43.436 35.5919L42.7091 36.3225L35.6212 35.7745C35.9847 33.0969 37.0751 31.7595 38.8925 31.7595L40.5282 31.577H43.0725C45.1312 31.577 49.3712 32.9144 55.7944 35.5924C60.1562 36.6871 64.214 37.4778 67.971 37.9651L68.1527 38.3297C67.667 39.5448 66.9996 40.6399 66.1536 41.615L62.7005 41.0675C58.0943 41.0675 52.8243 42.5276 46.8891 45.4484C45.5533 46.543 43.859 48.7332 41.8004 52.0186C39.6195 55.9112 38.529 59.014 38.529 61.3265C38.529 63.7595 39.3155 65.1594 40.8916 65.5249H42.7091C44.0408 65.5249 47.4938 62.0566 53.0683 55.1209C57.5495 51.3478 61.3061 49.2174 64.3362 48.7328C68.2123 47.2731 70.1519 46.2373 70.1519 45.63V43.8048C70.1519 42.4642 69.3027 37.7192 67.6075 29.5684C66.2726 21.2953 65.3049 15.942 64.6997 13.5068C65.0632 11.5616 65.4266 10.5865 65.7901 10.5865H65.9719C69.3622 16.3075 71.0606 19.5299 71.0606 20.26L70.6971 20.625L68.1527 18.4348L71.6058 39.2419L71.9693 42.8922C71.9693 46.2971 70.9384 49.2174 68.8797 51.6531C66.8179 55.5457 65.7901 58.7088 65.7901 61.144V61.5091C65.7901 64.0643 66.6366 65.7672 68.3345 66.6196H69.4249C72.9375 66.6196 78.9354 61.8746 87.4173 52.3832C90.4446 49.7052 94.0194 46.9076 98.14 43.9873L98.6852 43.6227V43.4402C95.6551 42.3451 93.0512 40.7622 90.8703 38.6948C90.5069 38.2074 90.2029 37.0521 89.9616 35.2269C89.9616 33.279 91.2933 31.9416 93.9599 31.2115H96.3226C100.803 31.2115 108.559 32.1871 119.585 34.1318C120.068 34.1318 120.312 34.3143 120.312 34.6794C119.705 37.1119 118.736 38.3297 117.405 38.3297C114.86 39.5448 113.466 40.2151 113.225 40.337C112.739 41.5521 112.497 42.7699 112.497 43.9873V44.1698L113.225 44.8999C113.708 44.8999 114.134 44.3528 114.497 43.2573C114.497 43.4995 114.679 43.6227 115.042 43.6227V43.8048C114.679 45.8723 114.375 46.9076 114.134 46.9076H113.588C112.253 46.5426 111.589 45.995 111.589 45.2649V43.0743L112.134 40.8845V40.702C106.923 42.6467 104.32 43.6821 104.32 43.8048V44.1698C105.53 45.2649 106.137 46.5426 106.137 48.0027V49.2803L105.592 49.6454H105.229C103.411 49.6454 102.017 48.61 101.049 46.5426H100.685C98.3821 46.5426 95.8378 50.3129 93.0521 57.8587C92.8081 58.2242 92.6886 58.7088 92.6886 59.3188V61.144C93.0521 63.4543 94.0803 64.6123 95.7782 64.6123C98.3226 64.6123 100.685 62.8469 102.866 59.3188C106.62 53.5978 111.163 49.8877 116.497 48.1857C120.977 46.7251 123.221 45.4479 123.221 44.3528C123.221 43.7423 122.008 36.9289 119.586 23.9108C118.978 18.923 118.251 14.9076 117.405 11.8646C117.405 11.2573 117.646 10.2849 118.132 8.9443L118.131 8.94339ZM14.3566 49.0974C15.8105 49.8274 16.5375 50.6168 16.5375 51.4697C16.5375 52.0774 15.7483 52.3822 14.1749 52.3822C14.1749 54.3274 12.0535 57.005 7.81394 60.413C6.47905 61.5081 5.38861 62.1757 4.54261 62.4207L4.36087 62.2382C10.1766 56.6395 13.0844 53.5367 13.0844 52.9298V50.192L14.3566 49.0974ZM61.2457 11.4986V11.8637C61.2457 12.7165 59.1843 13.6889 55.0665 14.784C36.7702 20.9896 23.1996 26.5879 14.3566 31.5756L13.4479 32.1232C13.2035 32.1232 13.0844 31.9407 13.0844 31.5756C13.0844 30.6033 17.7474 28.048 27.0785 23.9099C35.4385 20.2595 45.9795 16.3071 58.7013 12.0462L61.2457 11.4986ZM21.6262 34.6784C22.5945 35.0435 23.0802 35.5281 23.0802 36.1386V36.6857L22.7167 37.0512H22.3532C21.8675 36.5639 21.6262 36.1386 21.6262 35.7731C20.6548 35.7731 20.0501 38.2061 19.8088 43.0738V43.6218L19.4453 43.8043H19.2636C19.0192 43.8043 18.7779 43.0738 18.5366 41.6141C17.8097 40.519 17.2018 39.7889 16.7192 39.4235H14.5383C14.0526 39.0589 13.8114 38.5109 13.8114 37.7808C13.9309 37.2935 14.2344 37.0507 14.7201 37.0507C16.5375 37.0507 17.9292 38.3886 18.9001 41.0661H19.2636V38.6934C19.2636 36.8687 20.0501 35.5281 21.6262 34.6784ZM24.8976 13.6889C25.988 14.2989 26.5332 15.0295 26.5332 15.8791L25.988 16.2441H25.8063L24.7158 15.3315C23.7449 15.3315 22.8984 18.0095 22.1715 23.3623L21.9897 23.5448H21.808C21.4445 23.5448 21.081 22.6322 20.7175 20.8071L19.2636 18.6168L17.9914 19.1644H17.6279C16.4157 18.7994 15.8105 18.1323 15.8105 17.1567V16.4266C15.8105 16.1843 16.234 16.0616 17.0827 16.0616H17.2645C18.5962 16.0616 20.1101 17.5843 21.808 20.6245H21.9897V20.2595C22.4722 15.8791 23.4436 13.6889 24.8976 13.6889ZM29.0776 60.596C31.378 61.4461 32.5307 62.2387 32.5307 62.9687C32.5307 63.4538 31.9854 64.6119 30.895 66.437C30.5315 66.437 29.5601 65.8265 27.9872 64.6119H27.2602L26.5332 66.6196L25.8063 66.9846C23.3814 65.8895 22.1715 65.0969 22.1715 64.6123C22.1715 64.0018 22.7167 62.7871 23.8071 60.962L27.2602 62.9697L29.0776 60.5969V60.596ZM30.7133 26.4651C30.8323 26.4651 30.895 26.8302 30.895 27.5602C32.3489 28.2903 33.0759 29.0204 33.0759 29.7505V30.4805C32.4684 32.0634 31.622 32.8533 30.5315 32.8533H29.8046C29.0776 32.8533 28.7141 32.4284 28.7141 31.5756V31.0281C29.6823 27.9878 30.3498 26.4651 30.7133 26.4651ZM29.4411 31.2106L29.8046 31.5756C31.3775 31.3333 32.1672 30.9678 32.1672 30.4805V30.1155C31.5597 29.3854 30.955 29.0204 30.3498 29.0204C29.9863 29.0204 29.6823 29.7505 29.4411 31.2106ZM38.8916 8.94339C41.192 8.94339 42.3447 9.12591 42.3447 9.49094V10.0385C42.3447 11.3791 41.436 12.899 39.6186 14.6014C37.5567 15.6966 36.0433 16.2441 35.075 16.2441L34.7116 15.8791C35.558 15.149 36.8924 14.2364 38.7099 13.1413V12.5937H35.2568L33.9846 12.9588H33.4394L33.0759 12.5937C33.9224 10.1612 35.1945 8.94339 36.8924 8.94339H38.8916ZM43.4351 20.077L43.6169 20.2595C42.6454 22.6952 42.1629 24.3379 42.1629 25.1875C42.1629 25.6753 42.3447 26.1001 42.7081 26.4651H43.2534C43.3724 26.4651 43.6169 25.8578 43.9803 24.6399H44.3438L44.5256 25.005V25.5525C44.5256 26.5281 44.0399 27.3777 43.0716 28.1078C41.7367 27.7428 41.0725 27.1354 41.0725 26.2826V25.005C41.0725 23.0603 41.859 21.4176 43.4351 20.077ZM43.7986 54.0254L44.3438 54.3909V55.6685C45.1898 55.6685 45.9168 56.216 46.5247 57.3116V58.0417C46.5247 59.2563 45.6755 60.1091 43.9803 60.5969H43.4351C42.7081 60.5969 42.3447 59.9864 42.3447 58.7717C42.9494 56.3351 43.4351 54.7563 43.7986 54.0263V54.0254ZM43.7986 56.7631L43.4351 58.0412V58.9538H43.7986C44.5256 58.9538 45.0708 58.7088 45.4343 58.2237V58.0412C45.0708 57.6762 44.5256 57.2468 43.7986 56.7631ZM50.8865 46.5421H51.7952C52.1587 46.5421 52.3404 46.7844 52.3404 47.2726L51.4317 50.1925H52.3404C53.4308 50.1925 55.0038 48.9746 57.0657 46.5421L57.4291 46.9072C57.0657 48.3673 55.7312 49.8274 53.4308 51.2876C52.7039 51.5299 52.0364 51.6531 51.4317 51.6531H50.8865C50.4008 51.5299 50.1595 51.2251 50.1595 50.7405L50.8865 48.1852V48.0027H50.1595L49.796 48.3678H49.4326L49.0691 48.0027C49.3099 47.0262 49.9142 46.5421 50.8865 46.5421ZM58.7013 21.5371C59.9108 22.7545 60.5783 23.9099 60.7005 25.005V25.5525C60.7005 26.6476 60.2743 27.1952 59.4283 27.1952C58.5791 27.0752 57.9121 26.8927 57.4291 26.6476C57.4291 27.6232 56.6399 28.1708 55.0665 28.2903C54.0951 28.1708 53.6126 27.7428 53.6126 27.0127V24.4574L52.3404 25.1875V24.6399C52.5817 23.5448 53.1269 22.9973 53.9761 22.9973L54.5213 23.3623V26.4651C54.5213 26.5879 54.9443 26.7704 55.7935 27.0127H55.9752C56.3387 26.7704 56.5204 26.4651 56.5204 26.1001V25.7351L55.7935 22.0847H56.3387C56.58 22.0847 57.1847 23.12 58.1561 25.1875L58.5196 25.5525H59.4283L59.61 25.1875L58.1561 22.0847L58.7013 21.5371ZM56.5204 60.4135C58.8208 61.0213 60.1553 63.5168 60.5187 67.8967C60.1553 69.5992 59.7918 70.452 59.4283 70.452L59.0648 70.0874C59.3061 69.3569 59.4283 68.6268 59.4283 67.8967V67.5317C59.4283 65.9488 58.4573 64.1839 56.5204 62.2382L56.157 61.3256C56.2751 60.7142 56.3978 60.4135 56.5204 60.4135ZM77.9658 2.92029C78.8118 2.92029 79.238 3.28533 79.238 4.0154V4.74547C78.5111 6.4511 77.4801 7.30072 76.1484 7.30072H75.6032L75.4215 7.11821H75.2397L74.5128 8.39583L73.9675 8.21332L74.1493 6.93569H73.9675C73.7236 6.93569 73.3001 7.18117 72.6954 7.66576C72.2097 7.66576 71.7867 7.42347 71.4232 6.93569H71.2414C70.878 6.93569 70.3923 7.18117 69.7875 7.66576H69.424V7.30072C69.424 6.32836 70.2105 5.72103 71.7867 5.47554C72.0279 5.96332 72.4509 6.20562 73.0588 6.20562H73.2406V3.46784H73.4223C73.6636 3.46784 74.0866 4.13814 74.6945 5.47554H75.058C76.2666 3.77311 77.2389 2.92029 77.9658 2.92029ZM75.058 49.0974L75.2397 49.2794V49.4615C74.0271 53.2323 73.4223 55.6676 73.4223 56.7622C73.5414 57.6123 73.9675 58.0403 74.6945 58.0403C75.4215 58.0403 75.785 57.4298 75.785 56.2151L76.3302 55.8496L76.5119 56.0321V57.4923C76.5119 58.9524 75.8445 59.9248 74.5128 60.4121H74.1493C72.9366 60.4121 72.3319 59.2545 72.3319 56.9443C72.3319 55.7269 73.1184 53.2314 74.6945 49.461L75.058 49.096V49.0974ZM75.6032 10.0385C78.2671 13.8116 79.8432 16.8546 80.3285 19.1644L80.1467 19.712H79.6015L77.7841 17.7043V18.0693L80.1467 33.9484C81.1149 39.3016 81.6007 42.8918 81.6007 44.7169C81.115 49.2169 80.7515 51.4701 80.5102 51.4701H80.1467C79.9023 51.4701 79.6015 49.5824 79.238 45.812C77.9031 34.1313 76.6314 25.0054 75.4215 18.4343C75.4215 16.6091 75.1175 14.9665 74.5128 13.5063C74.8762 11.1966 75.2397 10.0385 75.6032 10.0385ZM75.9667 5.84058H76.8754C77.4801 5.84058 77.9031 5.65806 78.1476 5.29303V4.38043H77.2389C76.8754 4.62592 76.4483 5.11051 75.9667 5.84058ZM89.5972 64.0639L89.779 64.2464V64.9764C89.5345 65.5842 87.8989 66.8016 84.872 68.6268C83.2958 70.207 82.2054 71 81.6007 71L81.4189 70.8175V70.0874C82.9919 68.139 85.6585 66.1313 89.4155 64.0639H89.5972ZM92.1416 2.37274C92.9881 2.37274 94.0785 3.83288 95.4129 6.75317L95.7764 8.76087V10.4035H95.9582C96.9264 10.4035 99.8342 9.06567 104.682 6.38813L105.772 6.20562H105.954L106.499 6.93569V7.48324C106.499 8.09377 105.164 9.7962 102.501 12.5937C102.015 13.5693 101.774 14.4189 101.774 15.149V15.3315C109.407 12.6567 113.647 11.3161 114.496 11.3161L114.677 11.4986V11.6812C114.677 12.4112 111.587 13.6889 105.409 15.514C91.5964 20.3823 84.6902 23.6078 84.6902 25.1875V25.5525C87.1128 25.798 88.3251 26.1001 88.3251 26.4651C88.3251 26.9529 88.2028 27.2582 87.9616 27.3777H87.2346C84.8097 27.1354 83.5998 26.5281 83.5998 25.5525V25.1875C83.5998 22.7545 89.1715 19.592 100.32 15.6966C100.683 15.4543 101.106 14.4819 101.592 12.7763C102.197 11.6812 103.41 10.1612 105.227 8.21332L105.045 7.84828H104.682L98.5025 11.3161L95.0495 12.4112L92.3233 12.5937H91.5964C91.1107 12.5937 90.1425 12.4112 88.6885 12.0462H88.5068L87.2346 12.9588H85.7807L84.5085 12.2287C84.2641 12.3515 83.8411 12.7763 83.2363 13.5063L82.6911 13.1413V12.5937C83.5371 11.2563 84.145 10.5861 84.5085 10.5861C84.9915 10.5861 85.5989 10.9511 86.3259 11.6812L86.8711 11.8637L87.4163 10.9511L86.8711 7.66576L87.0529 7.48324H87.2346L88.8703 10.0385C89.475 10.6486 90.202 10.9511 91.0512 10.9511H94.686L94.8677 10.0385V9.30842C94.8677 7.60599 93.7773 5.59829 91.5964 3.28533V2.55525C91.5964 2.43525 91.7781 2.37274 92.1416 2.37274ZM85.7807 29.2029L85.9624 29.7505L85.2355 33.9484V34.6784L86.1442 35.591L87.2346 33.9484C87.3541 33.9484 87.4163 34.0684 87.4163 34.3134C87.4163 35.6513 87.0529 36.6236 86.3259 37.2337H85.9624C84.7498 36.6232 84.145 35.8931 84.145 35.0435C84.6266 31.1508 85.1719 29.2029 85.7807 29.2029ZM86.1442 41.0666C88.6885 41.7971 89.9607 42.5865 89.9607 43.4393C89.2338 45.7495 88.7481 46.9072 88.5068 46.9072H88.1433C87.2941 46.7844 86.0815 46.0543 84.5085 44.7169V44.1694C85.2355 42.0992 85.7807 41.0666 86.1442 41.0666ZM92.3233 35.591V35.9561C96.8042 38.2663 99.712 40.154 101.047 41.6141C104.801 39.9085 108.436 38.389 111.951 37.0512V36.6857H111.588C103.591 35.711 97.8937 35.226 94.5042 35.226C93.0503 35.226 92.3233 35.3455 92.3233 35.591ZM101.774 21.3546H102.501C102.864 21.3546 103.165 21.9022 103.41 22.9973L103.046 23.5448L101.592 22.8148C100.743 23.5448 100.016 25.9176 99.4112 29.933V30.1155H99.0478C98.8033 30.1155 98.5025 29.2659 98.1391 27.5602C97.4121 26.3456 96.6851 25.7351 95.9582 25.7351C94.5042 25.7351 93.7773 25.3102 93.7773 24.4574V24.0924C93.8968 23.6073 94.3225 23.3623 95.0495 23.3623C96.1399 23.3623 97.4121 24.5797 98.866 27.0127H99.0478C99.652 23.2428 100.561 21.3546 101.774 21.3546ZM99.0478 52.9303C99.1672 53.7799 99.4112 54.2079 99.7747 54.2079C100.743 54.5734 101.229 55.058 101.229 55.668V56.3986C101.229 57.736 100.32 58.5258 98.5025 58.7708H97.7756C97.2899 58.5258 97.0486 58.1603 97.0486 57.6757V57.3111C97.0486 55.6046 97.712 54.144 99.0478 52.9303ZM98.5025 55.303L97.9573 57.3107L98.866 57.4927C99.712 57.1277 100.138 56.8225 100.138 56.5802V56.2151C100.138 55.9687 99.593 55.668 98.5025 55.303ZM112.678 20.8071C113.405 20.8071 114.07 22.0249 114.677 24.4574V24.8225C114.555 25.9176 114.07 26.4651 113.224 26.4651H112.678L111.951 25.9176H111.77C111.77 26.6476 111.043 27.0752 109.589 27.1952C108.498 26.7102 107.953 25.7976 107.953 24.4574V23.9099C107.589 23.9099 107.408 23.7903 107.408 23.5448V22.9973L108.135 22.0847H108.498L109.043 22.8148V23.3623C109.043 25.0675 109.344 25.9176 109.952 25.9176C110.679 25.7976 111.043 25.4923 111.043 25.005L110.315 22.0847V21.9022L110.679 21.3546C111.162 21.5996 111.707 22.6952 112.315 24.6399L113.224 25.005L113.405 24.8225H113.587L112.496 21.7197V21.3546L112.678 20.8071H112.678ZM115.223 58.0408C116.191 58.0408 116.677 58.1603 116.677 58.4058V58.7708C116.677 59.9855 115.95 61.3859 114.496 62.9687L114.314 63.8813H114.678C116.251 63.8813 118.676 62.3587 121.948 59.3184H122.129V59.8659C122.129 61.3256 119.948 63.3338 115.587 65.8886L114.496 66.0711C113.525 65.8261 113.042 65.524 113.042 65.1585V63.8809C113.042 63.0285 113.707 61.8102 115.041 60.2305V59.8655H114.86L112.315 60.5956V60.2305C112.315 59.254 113.283 58.524 115.223 58.0403L115.223 58.0408ZM134.305 58.7708H134.487V59.5009C133.516 60.716 130.307 62.7237 124.855 65.5245L119.221 69.1748H119.04L118.858 68.8093V68.2622C119.827 67.0439 122.553 65.159 127.036 62.6042C130.426 60.779 132.852 59.5014 134.306 58.7713L134.305 58.7708ZM131.034 0.182518C132.002 0.182518 132.488 0.730072 132.488 1.82518C132.488 2.92029 131.579 3.89585 129.761 4.74547H128.671C128.308 5.59829 128.004 6.0231 127.762 6.0231V5.84058H127.399L127.762 5.29303L127.399 4.38043H127.217L125.036 5.29303L124.309 4.74547H123.764C123.764 5.23325 123.337 5.47554 122.491 5.47554C122.974 4.26043 123.4 3.53081 123.764 3.28533H124.854L125.762 3.83288L126.307 3.46784L125.944 2.55525V1.27763L126.307 1.09511C126.427 1.09511 126.731 1.64266 127.216 2.73777L128.125 3.46784C129.333 1.27763 130.306 0.182518 131.033 0.182518H131.034ZM128.308 8.21332C131.698 13.6889 133.396 17.0969 133.396 18.4343V18.6168H133.215C131.88 17.5217 130.971 16.9742 130.488 16.9742L132.669 29.933H132.851C134.061 29.6907 136.667 28.2305 140.665 25.5525L141.029 25.005L140.665 23.9099C140.907 21.4774 141.452 20.2595 142.302 20.2595C143.633 20.2595 144.905 21.3546 146.118 23.5448V24.8225L145.391 25.5525H145.027L143.937 25.005H142.665C142.542 25.9801 139.757 27.8053 134.305 30.4805L133.032 31.3931C133.878 36.1386 134.305 40.7613 134.305 45.2645C134.061 47.332 133.819 48.3673 133.578 48.3673C133.214 48.3673 132.547 44.4715 131.578 36.6857C130.002 28.6553 128.73 20.8071 127.762 13.1413C127.276 12.4112 127.034 11.8034 127.034 11.3161C127.034 9.97872 127.457 8.94339 128.307 8.21332H128.308ZM204.457 26.1001C207.365 28.9004 208.819 30.663 208.819 31.3931V31.5756H208.274L207.183 31.2106V31.3931C207.183 31.8804 208.092 33.9484 209.91 37.5983C210.637 39.6657 211 40.9438 211 41.4312V43.4389C211 45.9941 209.787 47.5145 207.365 48.0018H207.002C205.304 47.6363 203.608 46.7237 201.913 45.264C201.549 47.8193 200.215 49.0969 197.915 49.0969H196.461C194.762 47.6363 193.735 46.9062 193.371 46.9062C192.281 49.4615 190.281 50.7391 187.374 50.7391C184.948 50.7391 182.949 48.7314 181.376 44.716L180.831 44.1685H180.104C179.377 44.1685 178.105 45.2636 176.288 47.4538C175.802 48.1843 175.561 48.7912 175.561 49.279C175.561 50.2518 177.679 51.529 181.921 53.1114C183.012 53.8415 183.557 54.6902 183.557 55.6667V55.8487C183.557 57.4289 183.313 58.2219 182.83 58.2219C179.073 57.1268 176.952 56.5788 176.469 56.5788H175.379C171.864 56.5788 167.138 60.0471 161.203 66.9823C159.142 68.4425 157.506 69.173 156.296 69.173H155.206C153.871 69.0498 152.539 68.38 151.207 67.1653C150.359 65.5824 149.872 64.1223 149.753 62.7849C149.753 60.2292 151.026 57.1268 153.57 53.4764L155.933 50.7387V50.3732C154.72 49.2785 153.811 47.7559 153.206 45.8102H152.843C152.843 47.1481 152.176 48.7903 150.844 50.7387C148.663 52.8061 146.601 53.8415 144.665 53.8415C141.876 53.8415 139.817 52.0765 138.485 48.548L138.122 44.1676L138.667 39.4221C138.059 39.4221 137.213 42.6449 136.122 49.096C135.151 52.0158 134.123 53.4764 133.032 53.4764H132.487C131.516 53.4764 130.366 52.4406 129.034 50.3732C128.185 47.5729 127.762 45.8705 127.762 45.2631C128.003 41.9778 128.367 40.3347 128.852 40.3347H129.034L128.852 42.3424C128.852 47.2074 129.821 50.0086 131.76 50.7382H132.668C134.001 50.7382 135.151 47.8179 136.121 41.9773C137.454 37.1091 138.785 34.6766 140.12 34.6766H140.665L140.847 34.8591V35.9542C140.12 40.2124 139.756 42.8274 139.756 43.8025C139.756 46.6005 140.603 48.4257 142.301 49.2781C143.028 49.6431 143.815 49.8256 144.664 49.8256H144.845C147.508 49.8256 149.752 48.3025 151.569 45.2627L151.933 44.5326C151.933 42.9497 151.206 39.8464 149.752 35.2242V30.4787H149.934V30.1137C151.143 30.1137 152.478 33.764 153.932 41.0648C154.778 44.9574 156.477 46.9053 159.021 46.9053H159.203C160.412 46.9053 161.625 46.5403 162.837 45.8102V45.2627C162.837 44.5326 161.201 40.6367 157.93 33.5815C157.686 32.6091 157.566 31.8193 157.566 31.2088V30.6612C157.566 29.2011 157.686 28.351 157.93 28.106C159.989 29.3238 161.383 31.0263 162.11 33.2165L161.929 33.5815H161.565L160.475 33.2165C163.261 38.2042 164.655 42.2196 164.655 45.2627V45.6277C164.655 48.668 163.201 50.4932 160.293 51.1032H157.567C156.959 51.1032 156.051 52.0158 154.841 53.841C153.628 55.0561 152.416 57.2459 151.206 60.4112L151.024 61.6888V62.9665C151.024 65.399 152.234 66.6168 154.659 66.6168C156.595 66.6168 160.049 63.514 165.018 57.3089C168.653 54.7532 171.68 53.1105 174.105 52.3804L173.742 50.3727V50.0081C173.742 46.9646 175.195 43.9846 178.104 41.0643C179.072 40.2119 180.103 39.7867 181.193 39.7867H181.738C182.707 40.394 183.434 41.4886 183.919 43.0715C184.765 45.3818 186.038 46.5398 187.736 46.5398H188.826C190.884 46.5398 192.762 44.8967 194.46 41.6118L195.368 41.0643H195.732L195.551 42.5244V43.6195C196.76 44.4687 197.851 44.8967 198.822 44.8967C200.395 44.8967 201.548 43.4968 202.275 40.6993L203.184 40.1517L203.365 40.3338V41.6118H203.183V41.7944C204.515 43.1318 205.909 43.8016 207.363 43.8016H207.908L209.181 43.6195V43.2545C209.181 42.5244 208.028 39.6639 205.727 34.6762C205.364 33.216 204.637 31.5136 203.546 29.5657V28.4705C203.664 26.8909 203.969 26.0978 204.455 26.0978L204.457 26.1001ZM129.217 3.65036C130.548 3.40807 131.215 2.92029 131.215 2.19022V1.82518H130.67C129.943 1.82518 129.457 2.43525 129.216 3.65036H129.217ZM137.032 5.84058C139.695 6.93569 141.575 8.51858 142.666 10.5861C143.148 11.9266 143.392 12.899 143.392 13.5063V14.2364L143.756 14.6014L155.387 9.30842L160.476 7.66576L160.84 8.21332V8.39583C160.476 9.00636 156.779 10.5861 149.753 13.1413C145.875 14.9665 141.513 17.2197 136.668 19.8945H136.486V19.1644C136.486 18.192 138.122 17.0969 141.393 15.8791L142.666 14.784V13.6889C142.666 11.6214 140.785 9.37139 137.032 6.93569L136.668 6.0231L137.032 5.84058ZM141.757 23.3623V23.5448L142.847 23.9099V22.8148L142.483 22.4497C141.997 22.4497 141.756 22.755 141.756 23.3623H141.757ZM143.938 22.8148V23.5448L144.119 23.9099H144.846C144.846 23.1798 144.542 22.8148 143.938 22.8148ZM147.391 3.28533H147.754C147.996 3.28533 148.118 3.53081 148.118 4.0154C148.359 4.0154 149.086 4.50272 150.299 5.47554C149.45 7.54621 148.419 8.57835 147.209 8.57835C146.482 8.57835 146.119 7.84828 146.119 6.38813C146.846 4.32066 147.268 3.28533 147.391 3.28533ZM147.209 5.47554L147.027 6.93569H147.755L148.3 6.75317V6.38813C148.3 5.7808 147.936 5.47554 147.209 5.47554H147.209ZM157.205 17.1567H157.386C158.596 18.4973 159.204 19.6522 159.204 20.6245V21.3546C159.204 22.3297 158.84 22.8148 158.113 22.8148H157.568C157.205 22.8148 156.901 22.5725 156.66 22.0847H156.478C155.506 23.3025 154.66 23.9099 153.933 23.9099C152.843 23.9099 152.235 23.1798 152.116 21.7197V19.8945L151.207 20.6245L150.843 20.2595V19.8945C150.843 18.7994 151.57 18.0693 153.024 17.7043H153.569C153.326 18.3143 153.143 19.3469 153.024 20.8071C153.266 21.6599 153.689 22.0847 154.296 22.0847C154.902 21.8424 155.265 21.4774 155.387 20.9896L154.842 18.4343V17.5217H155.023C155.265 17.5217 155.869 18.5571 156.841 20.6245L157.204 20.8071H158.113L156.841 17.5217L157.204 17.1567H157.205ZM157.205 56.3981H157.386V56.9452C157.386 57.1875 157.931 57.553 159.022 58.0403L159.204 58.7704V59.683C159.204 60.6553 158.355 61.3854 156.659 61.8736C155.81 61.6282 155.387 61.2033 155.387 60.5956V60.0485C155.387 58.707 155.991 57.4932 157.204 56.3981H157.205ZM156.841 58.4058L156.296 59.8659V60.413H157.386C158.113 60.168 158.476 59.803 158.476 59.3184L157.023 58.4058H156.841H156.841ZM163.929 0.182518L165.747 2.92029C166.593 1.3406 167.383 0.365036 168.109 0H169.381C169.623 0 169.864 0.547554 170.109 1.64266C170.109 2.49548 169.319 3.40807 167.746 4.38043C166.897 4.38043 166.11 4.74547 165.384 5.47554L165.02 4.0154L162.839 5.29303L161.749 4.38043H161.204L160.295 5.29303H159.75V4.74547C159.75 4.0154 160.233 3.40807 161.204 2.92029H162.112L163.021 3.65036C163.626 3.65036 163.99 3.40807 164.111 2.92029L163.748 1.27763V0.547554L163.93 0.182518H163.929ZM165.02 6.75317C165.503 7.11821 166.655 9.18842 168.473 12.9588C169.319 14.6644 169.745 15.942 169.745 16.7917V16.9742L169.564 17.1567H169.382L167.201 15.149L167.019 15.8791V16.4266L169.382 29.933C170.592 37.3532 171.199 41.7966 171.199 43.2568V43.4393C170.955 48.3043 170.654 50.74 170.291 50.74H169.564V49.8274C169.564 46.5421 168.047 35.8936 165.02 17.8868C164.657 12.899 164.231 10.4035 163.748 10.4035C163.866 7.97102 164.293 6.75317 165.02 6.75317ZM168.473 1.27763C167.501 2.0077 167.019 2.61822 167.019 3.10281C168.229 2.73777 168.836 2.31296 168.836 1.82518L168.473 1.27763ZM180.468 60.231H180.831V60.596C180.831 61.4461 179.559 62.3587 177.014 63.3338C170.835 66.9841 167.683 68.8093 167.564 68.8093L167.2 68.2622C167.2 67.5317 168.047 66.7391 169.745 65.889C173.134 63.9407 176.71 62.0562 180.468 60.231ZM182.83 24.4574H183.194C183.557 24.7029 183.921 25.1875 184.284 25.9176C184.161 26.4049 183.98 26.6476 183.739 26.6476L182.83 25.9176H182.648C181.677 25.9176 180.951 28.4728 180.468 33.5833H180.104C179.86 33.3378 179.496 32.5507 179.014 31.2106C178.042 29.5082 177.316 28.6553 176.833 28.6553L176.469 29.2029H176.106C174.771 29.2029 174.107 28.5956 174.107 27.3777V26.6476C174.107 26.5281 174.471 26.4054 175.197 26.2826C176.771 26.2826 178.406 27.7428 180.105 30.663C180.586 26.5281 181.495 24.4574 182.831 24.4574H182.83ZM179.014 14.9665C179.618 15.2115 179.922 15.6368 179.922 16.2441V17.1567L179.559 17.5217H179.195L178.287 16.4266L177.559 16.7917V17.7043L178.468 17.8868H179.013L181.921 16.9742C182.162 16.9742 182.285 17.0969 182.285 17.3392C182.285 17.7043 181.194 18.4973 179.013 19.712C178.528 20.322 177.982 20.6245 177.378 20.6245H177.196L177.559 19.1644L176.287 18.0693V17.7043C176.287 16.4896 177.196 15.577 179.013 14.9665H179.014ZM199.187 55.1205H199.368L199.732 55.303V56.9457C199.732 57.7957 198.942 58.2237 197.369 58.2237C196.642 59.3184 195.793 59.8664 194.825 59.8664H194.461C193.734 59.1363 193.248 58.7713 193.007 58.7713C192.522 58.7713 190.764 60.5965 187.737 64.2468C185.311 66.3143 182.585 68.0797 179.558 69.5399L179.013 69.9049H178.286V69.5394C178.286 69.2944 180.404 67.8347 184.647 65.159C185.857 64.1839 188.401 61.7509 192.28 57.8582C192.644 57.4932 193.126 57.3111 193.734 57.3111H194.098L195.552 58.2237C196.398 57.736 196.824 56.8831 196.824 55.668H197.187L197.914 56.7627H198.823V56.5802C198.823 55.6037 198.941 55.12 199.186 55.12L199.187 55.1205ZM186.828 32.1232V32.4882L185.738 35.7731V36.6857C185.738 37.2935 185.979 37.7187 186.465 37.9638H186.829L187.919 36.6857H188.101L188.464 37.0512C187.979 39.1186 187.251 40.154 186.283 40.154C185.312 39.5439 184.829 38.7536 184.829 37.7813V37.0512C184.829 35.4683 185.493 33.8256 186.828 32.1232ZM197.551 15.6966H197.915C198.279 15.8193 198.579 16.1843 198.823 16.7917V17.5217L198.46 17.8868H198.278L197.369 16.7917C196.035 17.7668 195.37 19.1042 195.37 20.8071L194.462 24.2749H194.28C193.19 21.1123 192.582 19.5294 192.462 19.5294H191.917L191.553 19.8945H191.372C189.918 19.4094 189.191 18.7396 189.191 17.8868V17.1567C189.554 16.9144 189.918 16.7917 190.281 16.7917C192.098 16.7917 193.43 18.3143 194.279 21.3546H194.461C194.824 17.5847 195.851 15.6966 197.55 15.6966H197.551ZM196.461 27.3777C198.034 27.5005 198.823 27.8057 198.823 28.2903V28.4728C198.823 29.5679 197.974 31.0281 196.279 32.8533C194.217 34.3134 192.644 35.0435 191.553 35.0435V34.6784C191.917 34.0684 193.067 33.0358 195.007 31.5756V31.3931L194.462 31.2106C191.917 31.4561 190.645 31.6386 190.645 31.7582H190.282L189.918 31.5756V31.2106C190.645 29.1431 191.432 28.1078 192.281 28.1078L196.461 27.3777ZM192.644 7.48324C192.644 8.33606 192.885 8.76087 193.371 8.76087C194.581 9.24865 195.189 9.85598 195.189 10.5861C195.189 11.5612 194.399 12.4112 192.826 13.1413H192.099C191.372 13.1413 190.887 12.6563 190.646 11.6812C191.491 9.00636 192.158 7.60599 192.645 7.48324H192.644ZM192.099 9.85598L191.735 11.8637V12.0462H192.644C193.127 12.0462 193.672 11.6812 194.28 10.9511V10.5861L192.099 9.85598ZM210.273 59.5009L210.455 60.0489C210.455 60.779 207.365 62.2989 201.186 64.6119C199.005 65.8265 197.733 66.437 197.37 66.437L197.188 66.2545V65.5245C197.552 64.7939 200.76 63.2713 206.82 60.9615C208.515 59.985 209.665 59.5014 210.273 59.5014L210.273 59.5009ZM206.456 51.4701C208.757 52.2002 209.91 53.0503 209.91 54.0254C209.91 54.7559 209.424 55.8505 208.456 57.3111C206.516 56.4583 205.244 55.486 204.64 54.3909C205.607 52.4425 206.212 51.4706 206.457 51.4706L206.456 51.4701Z" fill="#D8C3AA"/>
</svg>
