<svg width="214" height="67" viewBox="0 0 214 67" fill="none" xmlns="http://www.w3.org/2000/svg">
<path d="M21.5176 3.63599C19.4936 3.63599 18.0216 4.06533 17.1016 4.92399C16.243 5.78266 15.7216 6.79466 15.5376 7.96C15.3536 9.064 15.2616 10.0453 15.2616 10.904V34.088C15.2616 37.5227 15.4763 40.8653 15.9056 44.116C16.3963 47.3053 17.2856 50.188 18.5736 52.764C19.8616 55.34 21.763 57.3947 24.2776 58.928C26.8536 60.4613 30.1963 61.228 34.3056 61.228C38.7216 61.228 42.3096 60.1853 45.0696 58.1C47.891 56.0147 49.9456 53.132 51.2336 49.452C52.583 45.772 53.2883 41.54 53.3496 36.756L53.6256 10.904C53.6256 9.67733 53.6563 8.512 53.7176 7.408C53.779 6.24266 53.8403 5.2 53.9016 4.28C52.7976 4.34133 51.6936 4.40266 50.5896 4.464C49.547 4.52533 48.4736 4.58667 47.3696 4.648V0.599996H64.4816V3.63599C62.151 3.69733 60.5563 4.21867 59.6976 5.2C58.839 6.18133 58.3483 7.5 58.2256 9.156C58.1643 10.812 58.103 12.744 58.0416 14.952L57.8576 36.296C57.8576 40.2827 57.4283 44.0853 56.5696 47.704C55.711 51.3227 54.3003 54.5427 52.3376 57.364C50.4363 60.1853 47.891 62.424 44.7016 64.08C41.5736 65.6747 37.7096 66.472 33.1096 66.472C28.203 66.472 24.063 65.828 20.6896 64.54C17.3776 63.252 14.7096 61.2587 12.6856 58.56C10.723 55.8613 9.31228 52.4573 8.45362 48.348C7.59495 44.2387 7.16562 39.332 7.16562 33.628V14.952C7.16562 13.3573 7.19628 11.4867 7.25762 9.34C7.38028 7.132 7.47228 5.44533 7.53362 4.28C6.42962 4.34133 5.32562 4.40266 4.22162 4.464C3.11762 4.464 2.01362 4.49466 0.909617 4.556V0.599996H21.5176V3.63599ZM109.291 66.056C107.355 66.056 105.463 65.814 103.615 65.33C101.767 64.89 100.095 64.164 98.5993 63.152C97.1473 62.096 95.9813 60.754 95.1013 59.126C94.2213 57.454 93.7813 55.452 93.7813 53.12C93.7813 50.26 94.7053 47.73 96.5533 45.53C98.4453 43.33 100.975 41.548 104.143 40.184C102.999 38.688 102.053 37.302 101.305 36.026C100.557 34.706 100.007 33.408 99.6553 32.132C99.3033 30.812 99.1273 29.47 99.1273 28.106C99.1713 24.938 100.337 22.43 102.625 20.582C104.913 18.69 107.817 17.744 111.337 17.744C113.581 17.744 115.517 18.162 117.145 18.998C118.817 19.79 120.093 20.89 120.973 22.298C121.897 23.662 122.359 25.224 122.359 26.984C122.359 28.612 122.007 30.174 121.303 31.67C120.599 33.166 119.455 34.618 117.871 36.026C116.287 37.39 114.175 38.754 111.535 40.118C112.723 41.35 114.021 42.714 115.429 44.21C116.881 45.706 118.333 47.18 119.785 48.632C121.237 50.04 122.557 51.316 123.745 52.46C123.965 51.668 124.119 50.92 124.207 50.216C124.339 49.468 124.405 48.808 124.405 48.236C124.405 47.224 124.251 46.234 123.943 45.266C123.679 44.254 123.173 43.418 122.425 42.758C121.721 42.054 120.709 41.68 119.389 41.636V39.458H130.939V42.164L125.461 41.9C126.165 42.472 126.671 43.22 126.979 44.144C127.287 45.068 127.463 46.146 127.507 47.378C127.551 48.214 127.463 49.292 127.243 50.612C127.067 51.888 126.715 53.23 126.187 54.638C126.671 55.078 127.177 55.562 127.705 56.09C128.277 56.574 128.871 57.08 129.487 57.608C131.467 59.368 133.161 60.688 134.569 61.568C136.021 62.404 137.099 62.822 137.803 62.822V65H131.665C131.269 65 130.367 64.604 128.959 63.812C127.595 62.976 125.769 61.546 123.481 59.522C122.073 61.326 120.203 62.866 117.871 64.142C115.583 65.418 112.723 66.056 109.291 66.056ZM110.083 62.756C112.855 62.844 115.143 62.404 116.947 61.436C118.795 60.424 120.269 59.17 121.369 57.674C121.061 57.366 120.753 57.08 120.445 56.816C120.137 56.508 119.807 56.2 119.455 55.892C116.507 52.988 113.889 50.414 111.601 48.17C109.357 45.926 107.443 43.902 105.859 42.098C104.451 42.934 103.351 43.968 102.559 45.2C101.767 46.432 101.195 47.664 100.843 48.896C100.535 50.128 100.381 51.206 100.381 52.13C100.381 54.55 100.843 56.53 101.767 58.07C102.735 59.61 103.945 60.754 105.397 61.502C106.893 62.25 108.455 62.668 110.083 62.756ZM110.083 38.534C112.547 36.906 114.373 35.102 115.561 33.122C116.749 31.098 117.343 29.118 117.343 27.182C117.343 25.07 116.793 23.332 115.693 21.968C114.593 20.56 113.031 19.856 111.007 19.856C109.203 19.856 107.685 20.538 106.453 21.902C105.265 23.222 104.671 25.114 104.671 27.578C104.671 29.47 105.177 31.34 106.189 33.188C107.245 35.036 108.543 36.818 110.083 38.534ZM174.414 65V61.964C176.744 61.8413 178.308 61.2893 179.106 60.308C179.964 59.3267 180.424 58.008 180.486 56.352C180.608 54.6347 180.67 52.7333 180.67 50.648L180.762 40.16L164.754 14.86C163.22 12.4067 162.055 10.352 161.258 8.696C160.522 7.03999 160.031 5.62933 159.786 4.464C158.804 4.52533 157.854 4.556 156.934 4.556C156.014 4.556 155.063 4.58667 154.082 4.648V0.599996H177.818V3.63599C174.996 3.63599 173.034 4.06533 171.93 4.92399C170.826 5.78266 170.396 6.97866 170.642 8.512C170.948 9.984 171.715 11.7013 172.942 13.664L180.302 25.256C180.854 26.1147 181.436 27.004 182.05 27.924C182.663 28.844 183.276 29.7947 183.89 30.776C184.564 31.696 185.27 32.6773 186.006 33.72H186.19C186.864 32.3707 187.539 31.0827 188.214 29.856C188.888 28.568 189.532 27.3413 190.146 26.176L197.966 11.364C198.272 10.7507 198.64 10.0453 199.07 9.248C199.56 8.38933 200.082 7.53067 200.634 6.672C201.186 5.752 201.768 4.98533 202.382 4.372C201.216 4.43333 200.02 4.49466 198.794 4.556C197.567 4.556 196.34 4.58667 195.114 4.648V0.599996H213.882V3.63599C210.876 3.82 208.392 4.86266 206.43 6.764C204.528 8.66533 202.504 11.5787 200.358 15.504C198.272 19.4293 196.248 23.2013 194.286 26.82C192.384 30.4387 190.544 33.9653 188.766 37.4C188.766 38.504 188.735 39.976 188.674 41.816C188.674 43.656 188.674 45.5267 188.674 47.428C188.674 49.268 188.674 50.832 188.674 52.12C188.674 53.408 188.674 54.052 188.674 54.052C188.674 55.708 188.643 57.1493 188.582 58.376C188.582 59.5413 188.52 60.5227 188.398 61.32C189.686 61.2587 190.943 61.1973 192.17 61.136C193.458 61.0747 194.746 61.0133 196.034 60.952V65H174.414Z" fill="#4F6D55"/>
</svg>
