<svg width="216" height="18" viewBox="0 0 216 18" fill="none" xmlns="http://www.w3.org/2000/svg">
<path d="M110.224 9.68057C112.723 3.31631 107.725 0.587852 107.725 0.587852C107.725 0.587852 102.726 3.31631 105.225 9.68057C101.36 6.04263 99.5406 10.4069 101.36 13.6806C101.36 13.6806 107.725 9.68058 107.725 17.1361C107.725 9.68058 114.09 13.6806 114.09 13.6806C115.908 10.4083 114.089 6.04334 110.224 9.68057Z" fill="#94A798"/>
<path d="M21.6544 17.1364H0C0 17.1364 3.57049 10.5947 11.8986 13.8656C7.13814 8.80767 12.8492 6.42711 17.1332 8.80767C17.1332 8.80767 11.8985 17.1364 21.6544 17.1364Z" fill="#94A798"/>
<path d="M27.0815 17.1362H97.0422L82.5146 12.5078L27.0815 17.1362Z" fill="#94A798"/>
<path d="M24.478 15.0063C23.3015 15.0063 22.348 15.9599 22.348 17.1363H26.6079C26.6079 15.9599 25.6544 15.0063 24.478 15.0063Z" fill="#94A798"/>
<path d="M98.7192 17.1363C98.7192 17.1363 90.947 13.8725 90.8795 8.44611C90.8128 3.01831 97.1778 -2.00693 101.533 0.807429C103.208 3.75527 96.8079 3.15248 93.8274 7.50821C96.3734 6.30196 97.6229 5.82413 97.6229 5.82413C97.6229 5.82413 100.964 5.16103 96.6077 10.9921C94.1291 14.3105 98.7192 17.1363 98.7192 17.1363Z" fill="#94A798"/>
<path d="M89.9147 13.0219C89.9147 13.0219 82.3264 6.95017 74.0587 10.4276C74.7687 1.18939 81.7499 6.64204 83.5249 7.87954C82.6963 3.67432 87.9033 7.69706 89.9147 13.0219Z" fill="#94A798"/>
<path d="M193.793 17.1364H215.448C215.448 17.1364 211.878 10.5947 203.549 13.8656C208.31 8.80767 202.598 6.42711 198.315 8.80767C198.315 8.80767 203.549 17.1364 193.793 17.1364Z" fill="#94A798"/>
<path d="M188.365 17.1362H118.405L132.933 12.5078L188.365 17.1362Z" fill="#94A798"/>
<path d="M190.97 15.0063C192.145 15.0063 193.1 15.9599 193.1 17.1363H188.84C188.84 15.9599 189.793 15.0063 190.97 15.0063Z" fill="#94A798"/>
<path d="M116.729 17.1363C116.729 17.1363 124.501 13.8725 124.567 8.44611C124.635 3.01831 118.27 -2.00693 113.914 0.807429C112.239 3.75527 118.639 3.15248 121.62 7.50821C119.074 6.30196 117.824 5.82413 117.824 5.82413C117.824 5.82413 114.483 5.16103 118.84 10.9921C121.319 14.3105 116.729 17.1363 116.729 17.1363Z" fill="#94A798"/>
<path d="M125.532 13.0219C125.532 13.0219 133.121 6.95017 141.389 10.4276C140.679 1.18939 133.697 6.64204 131.922 7.87954C132.751 3.67432 127.544 7.69706 125.532 13.0219Z" fill="#94A798"/>
</svg>
