<svg width="144" height="11" viewBox="0 0 144 11" fill="none" xmlns="http://www.w3.org/2000/svg">
<path d="M48.3578 0.998493C60.2796 0.663068 62.7117 5.2152 69.8495 7.06997C77.6324 9.09225 72.3705 2.04706 68.422 2.04706C64.4747 2.04706 55.9004 9.88112 49.7672 9.88112C43.6339 9.88112 46.5741 7.76621 49.7465 7.76621C52.9188 7.76621 55.3226 9.04107 55.3226 9.04107C55.3226 9.04107 47.8545 3.84432 44.4706 7.54541C41.0867 11.2465 52.2645 12.3797 58.6405 8.28563C66.2918 3.37269 70.3783 0.724822 72.4932 4.90177C75.0425 9.93695 55.8383 -1.38966 48.3578 0.998493Z" fill="#D8C3AA"/>
<path d="M95.5973 0.99897C83.6755 0.663546 81.2434 5.21568 74.1055 7.07046C66.3222 9.09273 71.585 2.04754 75.5331 2.04754C79.4804 2.04754 88.0546 9.88159 94.1879 9.88159C100.321 9.88159 97.381 7.76668 94.2086 7.76668C91.0362 7.76668 88.6329 9.04155 88.6329 9.04155C88.6329 9.04155 96.1006 3.84479 99.4845 7.54589C102.868 11.247 91.6902 12.3801 85.3146 8.2861C77.6632 3.37317 73.5768 0.7253 71.4619 4.90225C68.913 9.937 88.1168 -1.38961 95.5973 0.99897Z" fill="#D8C3AA"/>
<path d="M62.7303 10.8811C62.7303 10.8811 57.8838 0.998535 48.3578 0.998535C38.8318 0.998535 20.3263 13.1064 12.5012 10.0398C18.9516 14.4811 42.5777 2.00312 47.9094 2.00312C53.2411 2.00312 60.6154 6.54087 62.7303 10.8811Z" fill="#D8C3AA"/>
<path d="M44.3665 2.75562C44.3665 2.75562 34.4962 6.66439 34.0732 10.9957C31.9596 7.21681 35.4995 4.34814 44.3665 2.75562Z" fill="#D8C3AA"/>
<path d="M29.2347 7.38304C29.2347 7.38304 17.3548 12.1894 12.0054 5.98381C6.65635 -0.221335 20.6714 0.379724 22.1692 8.04966C23.2389 4.37902 15.8571 -2.04016 11.2567 0.634356C6.65635 3.3093 12.0147 14.3453 29.2347 7.38304Z" fill="#D8C3AA"/>
<path d="M-0.00012207 8.88377C-0.00012207 8.88377 6.67073 3.73184 11.159 6.7126C15.6477 9.69293 6.66566 11.799 4.35575 7.20791C4.32952 9.72212 10.1438 12.4774 12.5823 9.96702C15.0212 7.45704 9.66967 1.41898 -0.00012207 8.88377Z" fill="#D8C3AA"/>
<path d="M80.6583 10.8811C80.6583 10.8811 85.5044 0.998535 95.0308 0.998535C104.557 0.998535 123.062 13.1064 130.887 10.0398C124.437 14.4811 100.811 2.00312 95.4792 2.00312C90.1471 2.00312 82.7732 6.54087 80.6583 10.8811Z" fill="#D8C3AA"/>
<path d="M99.0217 2.75562C99.0217 2.75562 108.892 6.66439 109.315 10.9957C111.429 7.21681 107.889 4.34814 99.0217 2.75562Z" fill="#D8C3AA"/>
<path d="M114.153 7.38304C114.153 7.38304 126.033 12.1894 131.382 5.98381C136.731 -0.221335 122.717 0.379724 121.219 8.04966C120.149 4.37902 127.531 -2.04016 132.131 0.634356C136.731 3.3093 131.373 14.3453 114.153 7.38304Z" fill="#D8C3AA"/>
<path d="M143.388 8.88375C143.388 8.88375 136.717 3.73182 132.229 6.71258C127.74 9.69291 136.722 11.7989 139.032 7.20789C139.058 9.7221 133.244 12.4774 130.805 9.967C128.367 7.4566 133.718 1.41896 143.388 8.88375Z" fill="#D8C3AA"/>
</svg>
