<svg width="395" height="66" viewBox="0 0 395 66" fill="none" xmlns="http://www.w3.org/2000/svg">
<path d="M36.1358 19.4385C36.1358 19.4385 6.74059 16.4051 9.55494 4.49274C12.3693 -7.4208 30.3553 7.95793 17.0798 9.47464C19.4339 7.09072 0.376616 10.1241 36.1358 19.4385Z" fill="#94A798"/>
<path d="M36.1358 18.8629C36.1358 18.8629 6.74059 21.8963 9.55494 33.8087C12.3693 45.7222 30.3553 30.3434 17.0798 28.8267C19.4339 31.2106 0.376616 28.1784 36.1358 18.8629Z" fill="#94A798"/>
<path d="M356.569 19.1515C356.569 19.1515 385.964 22.1849 383.15 34.0972C380.336 46.0108 362.349 30.632 375.625 29.1153C373.271 31.4992 392.327 28.4658 356.569 19.1515Z" fill="#94A798"/>
<path d="M356.569 19.7261C356.569 19.7261 385.964 16.6927 383.15 4.78034C380.336 -7.1332 362.349 8.24553 375.625 9.76224C373.271 7.37832 392.327 10.4117 356.569 19.7261Z" fill="#94A798"/>
<path d="M195.448 28.1583C195.448 28.1583 192.449 57.8962 180.673 55.0491C168.897 52.2019 184.098 34.0063 185.598 47.4365C183.242 45.055 186.241 64.3332 195.448 28.1583Z" fill="#94A798"/>
<path d="M194.879 28.1583C194.879 28.1583 197.876 57.8962 209.652 55.0491C221.429 52.2019 206.227 34.0063 204.728 47.4365C207.084 45.055 204.086 64.3332 194.879 28.1583Z" fill="#94A798"/>
<path d="M152.638 17.3219C152.638 17.3219 128.719 34.8729 137.063 43.747C145.408 52.6222 153.334 30.1873 141.099 35.6167C144.32 36.4827 126.331 43.5353 152.638 17.3219Z" fill="#94A798"/>
<path d="M237.83 17.3219C237.83 17.3219 261.75 34.8729 253.406 43.747C245.06 52.6222 237.133 30.1873 249.369 35.6167C246.149 36.4827 264.138 43.5353 237.83 17.3219Z" fill="#94A798"/>
<path d="M182.041 30.4842C182.041 30.4842 170.927 27.2416 156.95 17.8728C148.111 11.9487 129.735 6.52895 118.228 15.6002C106.721 24.6714 128.988 33.2891 143.932 23.9155C158.877 14.5419 162.688 2.74927 179.687 2.90046C196.688 3.05165 195.875 15.1926 178.006 13.6347C169.338 12.8788 159.231 5.0957 159.231 5.0957C159.231 5.0957 169.851 11.1432 178.818 11.1432C187.783 11.1432 196.093 5.0957 178.759 5.0957C161.423 5.0957 148.839 24.2215 133.925 24.4476C122.769 24.6182 111.211 15.1756 133.925 14.3689C156.641 13.5622 160.826 30.4951 182.743 30.4951" fill="#94A798"/>
<path d="M208.286 30.4842C208.286 30.4842 219.401 27.2416 233.376 17.8728C242.216 11.9487 260.592 6.52895 272.099 15.6002C283.606 24.6714 261.339 33.2891 246.394 23.9155C231.45 14.5419 227.638 2.74927 210.64 2.90046C193.639 3.05165 194.452 15.1926 212.321 13.6347C220.989 12.8788 231.095 5.0957 231.095 5.0957C231.095 5.0957 220.474 11.1432 211.508 11.1432C202.542 11.1432 194.232 5.0957 211.566 5.0957C228.902 5.0957 241.485 24.2215 256.4 24.4476C267.557 24.6182 279.116 15.1756 256.4 14.3689C233.684 13.5622 229.5 30.4951 207.583 30.4951" fill="#94A798"/>
<path d="M194.154 16.696C194.154 16.696 185.399 47.4776 157.104 29.1646C159.495 44.9183 175.237 44.599 183.606 34.9823C179.023 45.7251 191.678 40.6912 190.93 29.1985C194.167 34.4356 194.154 16.696 194.154 16.696Z" fill="#94A798"/>
<path d="M196.17 16.696C196.17 16.696 204.925 47.4776 233.22 29.1646C230.829 44.9183 215.087 44.599 206.717 34.9823C211.301 45.7251 198.645 40.6912 199.394 29.1985C196.158 34.4356 196.17 16.696 196.17 16.696Z" fill="#94A798"/>
<path d="M74.6221 14.5999L117.662 19.4379L74.6221 24.2759L57.6858 19.4379L74.6221 14.5999Z" fill="#94A798"/>
<path d="M51.433 24.2759L32.3626 19.4379L51.433 14.5999L58.9375 19.4379L51.433 24.2759Z" fill="#94A798"/>
<path d="M318.323 24.2759L275.283 19.4379L318.323 14.5999L335.259 19.4379L318.323 24.2759Z" fill="#94A798"/>
<path d="M341.511 14.5999L360.581 19.4379L341.511 24.2759L334.007 19.4379L341.511 14.5999Z" fill="#94A798"/>
<path d="M21.5201 15.6659L0 18.8626L21.5201 23.2119L36.1358 19.4383L21.5201 15.6659Z" fill="#94A798"/>
<path d="M373.48 23.2119L395 20.0152L373.48 15.6659L358.864 19.4395L373.48 23.2119Z" fill="#94A798"/>
<path d="M191.433 43.9849L194.594 65.7559L198.892 43.9849L195.162 29.1988L191.433 43.9849Z" fill="#94A798"/>
<path d="M206.332 4.91482C212.59 2.0217 222.695 17.1973 212.092 24.2571C201.493 31.3157 197.822 17.4706 197.822 17.4706C197.822 17.4706 203.737 25.5524 210.203 20.7459C216.67 15.9382 212.93 5.7276 206.332 4.91482Z" fill="#94A798"/>
<path d="M183.994 4.91482C177.737 2.0217 167.632 17.1973 178.234 24.2571C188.834 31.3157 192.506 17.4706 192.506 17.4706C192.506 17.4706 186.591 25.5524 180.124 20.7459C173.656 15.9382 177.396 5.7276 183.994 4.91482Z" fill="#94A798"/>
</svg>
